<?xml version="1.0" standalone="no"?>
<!DOCTYPE svg PUBLIC "-//W3C//DTD SVG 20010904//EN"
 "http://www.w3.org/TR/2001/REC-SVG-20010904/DTD/svg10.dtd">
<svg version="1.0" xmlns="http://www.w3.org/2000/svg"
 width="512.000000pt" height="512.000000pt" viewBox="0 0 512.000000 512.000000"
 preserveAspectRatio="xMidYMid meet">

<g transform="translate(0.000000,512.000000) scale(0.100000,-0.100000)"
fill="#000000" stroke="none">
<path d="M0 3010 l0 -2110 406 0 406 0 66 -61 c90 -82 247 -200 374 -278 872
-544 2076 -702 2784 -367 119 57 202 113 292 200 85 82 102 109 102 166 0 77
-54 140 -167 192 l-63 30 52 59 51 59 408 0 409 0 0 2110 0 2110 -2560 0
-2560 0 0 -2110z m1752 2075 c15 -3 34 -12 42 -21 9 -8 20 -13 25 -9 5 3 12 1
16 -5 3 -5 16 -9 28 -8 12 1 52 -12 89 -29 49 -23 76 -44 107 -82 22 -29 43
-51 46 -51 10 2 86 -111 106 -157 16 -38 16 -43 3 -43 -10 0 -14 6 -10 15 3 8
3 15 0 15 -11 0 -50 -23 -71 -42 -12 -11 -26 -17 -31 -14 -6 3 -19 -9 -31 -27
-17 -26 -21 -28 -21 -12 0 13 -18 -8 -48 -55 -54 -83 -76 -107 -87 -90 -3 6
-11 50 -18 99 -7 56 -15 87 -22 85 -6 -3 -16 10 -22 27 -7 17 -17 28 -22 24
-6 -3 -11 -1 -11 4 0 12 -77 71 -93 71 -5 0 -3 -7 4 -17 13 -15 12 -15 -16 -1
-16 8 -43 18 -59 22 -25 6 -28 5 -17 -7 10 -13 7 -13 -26 -1 -21 7 -51 13 -66
14 -15 0 -46 9 -69 21 -34 17 -40 18 -35 5 8 -20 4 -20 -31 -2 -47 24 -76 30
-67 15 5 -8 -6 -1 -22 14 -17 16 -39 44 -49 63 -10 19 -22 34 -26 34 -13 0
-14 -45 -2 -86 10 -34 10 -41 -2 -41 -13 0 -27 16 -81 87 -11 13 -23 -31 -19
-66 4 -34 1 -45 -16 -60 -46 -41 -78 -97 -78 -136 0 -26 -4 -38 -14 -38 -12 0
-12 -5 -3 -31 10 -25 9 -33 -3 -42 -18 -14 -20 -110 -3 -142 6 -11 8 -26 6
-32 -3 -7 0 -13 5 -13 6 0 14 -9 17 -21 12 -36 66 -89 91 -89 14 0 24 -6 24
-15 0 -16 40 -59 71 -75 11 -6 30 -8 42 -4 20 6 80 9 92 4 3 -2 9 -3 14 -4 5
0 13 -4 17 -8 4 -5 17 -8 28 -8 12 0 27 -9 34 -21 11 -17 21 -20 50 -17 30 4
40 0 60 -23 23 -28 87 -54 105 -42 5 3 13 -1 18 -8 6 -9 12 -10 17 -4 8 12 17
12 50 1 13 -4 21 -10 19 -13 -3 -2 -15 0 -26 7 -12 6 -21 7 -21 2 0 -4 27 -16
60 -26 66 -20 70 -24 81 -76 8 -35 8 -35 6 8 -2 23 1 42 5 42 5 0 9 -19 10
-42 l1 -43 6 44 c3 25 12 46 18 49 9 2 11 -6 8 -30 -4 -32 -4 -31 6 5 8 26 17
37 30 37 10 0 19 5 19 11 0 5 -4 7 -10 4 -15 -10 -12 6 6 26 13 14 20 16 34 7
15 -10 25 -6 55 21 30 26 42 31 66 26 18 -4 29 -3 29 4 0 6 7 11 15 11 18 0
18 -2 1 -44 -12 -28 -12 -38 0 -65 19 -44 18 -58 -6 -78 -11 -10 -16 -21 -11
-27 5 -6 10 -23 13 -38 5 -24 3 -26 -19 -17 -18 7 -29 3 -57 -21 -18 -16 -36
-26 -40 -22 -4 4 -12 -1 -17 -11 -6 -9 -17 -17 -25 -17 -8 0 -13 -3 -11 -7 3
-5 -18 -9 -46 -10 -42 -2 -56 -8 -84 -35 -38 -36 -82 -40 -117 -10 -15 13 -17
14 -11 2 7 -12 6 -13 -7 -3 -8 7 -28 14 -44 15 -16 1 -38 9 -48 17 -14 12 -20
13 -23 3 -7 -19 -56 23 -70 61 l-13 32 3 -42 c1 -24 0 -43 -4 -43 -30 0 -69
15 -69 26 0 12 5 11 25 -2 15 -10 25 -12 25 -5 0 6 -5 11 -12 11 -6 0 -20 8
-31 18 -11 9 -17 11 -13 5 12 -22 -7 -14 -36 14 -15 15 -28 22 -28 16 0 -7 15
-23 33 -37 17 -14 27 -26 20 -26 -6 0 -15 5 -19 11 -3 6 -17 8 -29 5 -13 -3
-27 -2 -30 4 -4 6 1 7 10 3 32 -12 11 23 -38 66 -27 22 -59 41 -71 41 -13 0
-35 9 -48 20 -52 41 -70 121 -48 215 l9 40 -19 -25 c-44 -58 -51 -155 -17
-223 18 -34 21 -47 11 -51 -15 -6 -29 10 -43 47 -10 27 -31 37 -31 16 0 -22
-29 12 -40 47 -12 36 -39 47 -41 17 0 -10 -6 -3 -13 16 -14 40 -32 51 -39 24
-3 -14 -7 -11 -18 14 -17 42 -51 40 -60 -3 l-7 -29 -1 27 c0 15 -7 33 -15 40
-11 12 -11 17 4 36 10 12 21 42 24 67 4 25 12 45 17 45 6 0 8 -8 5 -18 -8 -23
25 -55 50 -50 21 4 31 28 11 28 -24 0 -48 36 -64 97 -8 32 -19 63 -25 70 -15
19 -10 93 11 153 11 30 16 57 12 60 -4 3 -7 23 -6 45 1 53 36 111 124 207 39
42 71 81 71 87 0 6 5 11 11 11 14 0 71 57 61 63 -4 2 -1 2 6 0 16 -3 92 68 92
86 0 7 4 10 9 7 5 -3 21 1 37 8 16 8 41 18 57 21 24 7 27 5 27 -20 0 -23 2
-26 15 -15 8 7 15 18 15 25 0 17 48 23 148 20 45 -2 84 1 87 5 3 5 17 4 33 -1
15 -4 39 -11 54 -14z m-578 -346 c-3 -5 0 -9 7 -9 7 0 9 -3 6 -6 -4 -4 -18 1
-32 10 -22 15 -24 20 -14 33 12 13 14 13 26 -3 7 -9 10 -21 7 -25z m-44 -14
c0 -8 -4 -15 -10 -15 -5 0 -10 -5 -10 -12 0 -9 3 -9 12 0 9 9 20 3 49 -23 21
-19 57 -39 81 -46 58 -15 158 -6 243 25 84 29 140 40 155 31 7 -4 -5 -15 -28
-27 -52 -25 -147 -125 -172 -180 -19 -43 -28 -107 -11 -80 5 9 10 2 14 -23 16
-95 90 -163 182 -166 l40 -1 -30 -10 c-35 -12 -85 -56 -85 -75 0 -7 -12 -18
-27 -24 -22 -8 -32 -6 -54 11 -16 11 -34 20 -40 20 -7 0 -22 9 -34 20 -19 18
-26 19 -49 8 -20 -9 -29 -9 -34 0 -5 7 -13 8 -22 2 -25 -16 -59 -11 -78 11 -9
12 -21 26 -27 33 -5 6 -10 18 -10 26 0 9 -10 15 -27 16 -39 1 -52 16 -93 97
-40 83 -43 117 -15 182 14 33 18 58 14 84 -6 36 9 82 38 119 14 17 28 15 28
-3z m610 -111 c65 -59 84 -97 76 -155 -14 -101 -69 -180 -148 -213 -64 -27
-95 -21 -143 27 -37 37 -44 50 -50 99 -8 66 1 102 42 155 34 45 138 123 164
123 10 0 37 -16 59 -36z m459 -57 c7 -9 8 -29 3 -58 l-8 -44 -16 50 c-8 28
-13 53 -11 58 6 11 19 8 32 -6z m-50 -81 c14 -75 14 -111 0 -160 l-11 -40 -19
25 c-10 13 -19 36 -19 51 0 31 -41 68 -75 68 -12 0 -34 -9 -48 -20 l-25 -20 5
20 c11 41 157 160 174 142 4 -4 12 -34 18 -66z m-279 -56 c13 -49 26 -57 52
-33 21 18 21 18 9 -4 -7 -14 -21 -23 -35 -23 -13 0 -39 -11 -58 -24 l-35 -23
18 48 c11 27 19 60 19 74 0 38 18 30 30 -15z m380 -10 c0 -11 4 -20 10 -20 6
0 6 -9 0 -26 -14 -36 -12 -84 3 -84 8 0 8 -3 -2 -9 -11 -7 -12 -13 -4 -23 17
-20 -1 -99 -26 -119 -12 -10 -21 -21 -21 -26 0 -6 -6 -10 -12 -10 -7 0 -33 -3
-58 -7 -42 -6 -44 -6 -26 9 11 8 27 15 35 16 12 0 10 3 -4 9 -11 5 -14 9 -7 9
6 1 12 6 12 12 0 5 -4 8 -9 5 -14 -9 -1 86 20 136 11 26 22 68 25 92 6 43 14
51 52 55 6 0 12 -8 12 -19z m-180 -50 c0 -5 -7 -10 -15 -10 -8 0 -15 5 -15 10
0 6 7 10 15 10 8 0 15 -4 15 -10z m21 -49 c26 -27 29 -36 29 -96 0 -70 -27
-141 -69 -179 -20 -18 -21 -18 -41 17 -12 19 -32 43 -45 51 -23 15 -91 132
-87 148 4 14 -46 20 -70 8 -14 -7 -5 7 24 34 l47 46 91 0 c88 0 93 -1 121 -29z
m-232 -54 c-16 -12 -79 -45 -79 -42 0 7 63 45 74 45 5 0 7 -1 5 -3z m-96 -83
c-20 -31 -106 -73 -87 -43 3 6 -8 3 -25 -5 -32 -17 -39 -30 -21 -41 6 -3 10
-1 10 4 0 15 33 14 96 -5 42 -12 62 -13 87 -5 71 23 125 13 147 -29 16 -29 12
-39 -22 -60 -43 -26 -74 -25 -96 2 -49 60 -50 61 -118 54 -86 -9 -127 10 -122
57 3 28 8 33 48 45 25 7 61 21 80 31 19 10 36 19 38 20 1 1 -5 -11 -15 -25z
m67 4 c1 -21 2 -21 11 -5 12 20 49 23 49 3 0 -30 -13 -46 -36 -46 -13 0 -24 6
-24 13 0 8 -3 8 -8 1 -10 -15 -52 -12 -52 3 0 15 36 53 50 53 6 0 10 -10 10
-22z m-866 -27 c-2 -3 -12 3 -22 13 -16 17 -16 18 5 5 12 -7 20 -15 17 -18z
m952 -29 c-10 -10 -29 15 -21 28 6 9 10 8 17 -4 6 -10 7 -20 4 -24z m-66 -4
l35 0 -40 -13 c-52 -18 -75 -18 -75 -2 0 20 12 28 29 21 9 -4 32 -6 51 -6z
m-90 -8 c0 -5 -9 -10 -20 -10 -11 0 -20 5 -20 10 0 6 9 10 20 10 11 0 20 -4
20 -10z m-903 -92 c-3 -8 -6 -5 -6 6 -1 11 2 17 5 13 3 -3 4 -12 1 -19z m43
-73 c7 -8 19 -15 27 -15 7 0 38 -18 67 -40 53 -40 77 -51 59 -27 -5 6 -7 23
-4 36 6 24 7 23 31 -12 13 -19 27 -34 31 -31 4 2 22 -14 40 -37 26 -33 35 -39
43 -28 14 18 39 18 59 0 9 -7 21 -10 26 -7 6 4 15 -2 21 -13 10 -20 8 -20 -72
-15 -218 14 -287 24 -345 49 -122 54 -151 122 -85 197 14 16 17 16 52 -12 20
-16 43 -36 50 -45z m38 39 c5 3 14 -6 21 -20 7 -16 17 -24 25 -21 8 3 17 -1
20 -9 12 -31 6 -37 -16 -17 -13 11 -34 24 -48 28 -35 10 -50 24 -43 41 4 11 9
12 19 3 7 -6 17 -8 22 -5z m1405 -137 c2 -55 -27 -101 -64 -103 -47 -2 -250
-81 -263 -103 -8 -12 6 -15 17 -5 3 4 34 17 69 29 35 13 83 30 108 40 60 22
96 22 127 -2 31 -23 81 -108 82 -140 1 -26 20 -78 26 -71 7 7 -20 111 -39 146
-10 19 -16 35 -14 37 10 10 102 -61 152 -119 54 -60 60 -72 78 -153 23 -102
22 -87 19 -183 -2 -74 -4 -75 -27 -15 -16 43 -16 -21 1 -82 23 -86 43 -215 40
-259 -1 -22 -9 -70 -18 -109 -9 -38 -17 -93 -19 -121 l-3 -52 -30 15 c-16 9
-34 22 -38 29 -4 8 -13 14 -18 14 -20 0 20 -42 72 -75 l54 -34 -83 -1 c-77 0
-83 2 -91 23 -5 14 -3 36 5 59 17 48 30 169 16 149 -8 -11 -12 -5 -18 25 -4
21 -19 74 -34 116 l-27 76 25 54 c21 45 25 69 26 153 1 85 -2 107 -22 148 -28
58 -36 61 -15 5 29 -81 19 -187 -35 -348 -42 -127 -51 -160 -44 -160 4 0 18
26 31 57 25 56 25 56 33 27 9 -31 30 -163 33 -204 1 -14 -4 -39 -10 -55 -7
-17 -15 -51 -19 -75 l-7 -45 -107 -2 c-59 -1 -199 -7 -312 -13 -113 -6 -255
-10 -315 -9 -61 2 -116 -1 -124 -5 -10 -6 -12 -5 -7 2 4 7 6 12 4 12 -2 1
-108 13 -236 29 -226 27 -234 29 -263 57 -52 49 -73 86 -75 129 -2 65 -21 150
-42 192 -11 21 -40 76 -65 123 -36 69 -46 99 -52 158 -4 42 -3 72 2 72 34 0
147 139 129 158 -3 3 -6 0 -6 -6 0 -14 -109 -132 -122 -132 -10 0 -8 28 7 95
7 28 6 28 -14 -8 -20 -35 -21 -47 -15 -185 6 -137 5 -150 -14 -188 -20 -40
-52 -75 -52 -57 0 5 5 34 10 64 6 33 7 72 2 95 l-8 39 -7 -55 c-4 -30 -10
-104 -12 -165 -4 -75 -11 -117 -21 -133 -10 -14 -14 -38 -12 -58 2 -19 3 -34
2 -34 -1 0 -19 7 -40 16 -21 9 -60 18 -87 21 -51 6 -153 -13 -164 -30 -3 -5 8
-6 28 -1 73 16 239 -1 255 -28 4 -6 3 -8 -3 -5 -11 7 -87 -14 -100 -27 -4 -5
10 -5 32 -1 75 16 106 8 152 -37 24 -23 43 -49 43 -58 -1 -12 -3 -12 -14 3 -7
9 -19 17 -25 17 -7 0 -10 4 -7 9 3 4 -6 19 -21 32 -14 13 -23 18 -18 10 6 -11
1 -13 -26 -8 -19 3 -121 16 -227 28 -166 19 -195 20 -203 8 -5 -8 -9 -10 -9
-6 0 4 18 35 40 68 22 33 40 62 40 65 0 2 -14 -3 -31 -12 l-32 -16 6 37 c3 20
15 56 26 79 21 41 43 137 35 145 -2 2 -4 -1 -4 -7 0 -7 -11 -10 -27 -7 -16 2
-50 7 -77 10 l-48 7 4 54 c4 41 19 83 67 175 34 67 60 124 57 126 -2 3 -18
-14 -35 -38 l-31 -42 0 45 c0 94 55 354 81 383 6 5 9 4 9 -3 0 -7 15 -12 38
-12 20 0 89 -7 152 -16 63 -8 130 -15 149 -14 21 0 38 -6 47 -17 12 -17 13
-16 7 4 l-5 22 53 -21 c34 -13 76 -20 114 -20 44 1 56 -2 45 -9 -12 -9 -11
-10 6 -6 51 11 326 -22 412 -49 48 -16 77 -18 47 -3 -15 7 -9 8 20 3 25 -3 36
-2 30 4 -9 8 -100 36 -275 83 -94 25 -53 34 66 14 136 -23 255 -59 347 -106
42 -22 77 -38 77 -36 0 3 -37 26 -82 52 -46 27 -100 59 -121 72 -21 13 -43 21
-49 17 -7 -5 -8 -3 -3 6 6 10 4 12 -9 7 -9 -4 -15 -3 -12 2 3 5 -8 14 -24 21
-33 14 -38 25 -15 33 8 4 22 -4 34 -18 22 -29 31 -31 31 -9 0 14 3 14 15 4 9
-7 39 -17 67 -21 65 -10 130 -54 246 -165 47 -46 88 -81 91 -79 2 3 -3 13 -12
22 -14 17 -14 21 6 54 52 85 102 137 142 149 22 7 46 17 54 23 7 6 20 12 28
13 8 2 25 12 37 23 16 15 25 18 33 10 8 -8 14 -5 23 11 9 17 17 20 37 15 23
-5 24 -4 18 23 l-6 30 48 -6 c26 -3 51 -10 55 -16 4 -6 8 3 9 19 1 17 2 35 4
40 1 6 3 17 3 25 4 32 24 -9 25 -53z m-989 -69 c-8 -13 -31 -9 -44 7 -10 12
-10 18 1 31 11 14 15 13 30 -7 10 -13 15 -27 13 -31z m-994 -18 c-6 -11 -13
-20 -16 -20 -2 0 0 9 6 20 6 11 13 20 16 20 2 0 0 -9 -6 -20z m1306 -101 c16
-6 58 -13 94 -16 35 -2 67 -9 71 -15 6 -9 14 -7 30 7 24 21 19 9 -15 -38 -12
-16 -26 -25 -34 -22 -10 4 -13 0 -9 -15 3 -11 1 -18 -4 -14 -5 3 -9 -1 -9 -9
0 -8 -18 4 -42 27 -24 23 -63 59 -88 80 -25 22 -40 36 -34 33 6 -4 24 -12 40
-18z m-800 -636 c15 -27 36 -61 47 -78 11 -16 14 -24 6 -17 -7 6 -29 12 -49
12 -19 0 -45 3 -56 6 l-22 6 22 59 c11 32 22 59 23 59 1 0 14 -21 29 -47z
m-86 -77 c0 -2 -8 -10 -17 -17 -16 -13 -17 -12 -4 4 13 16 21 21 21 13z m1707
-238 c-3 -7 -5 -2 -5 12 0 14 2 19 5 13 2 -7 2 -19 0 -25z m-1706 -159 c16
-11 29 -25 29 -30 0 -19 -33 -8 -60 21 -33 36 -14 41 31 9z m626 -45 c-3 -3
-12 -4 -19 -1 -8 3 -5 6 6 6 11 1 17 -2 13 -5z m1028 -20 c423 -84 817 -232
1162 -437 156 -92 180 -123 108 -141 -25 -6 -102 41 -211 130 -52 43 -98 62
-191 80 -83 16 -86 17 -190 85 -85 55 -115 65 -228 75 -68 6 -89 12 -145 46
-72 43 -105 54 -200 64 -36 4 -79 13 -95 20 -17 7 -69 20 -115 29 -79 15 -92
15 -197 -1 -107 -17 -115 -17 -191 1 -47 10 -91 15 -108 11 -71 -17 -90 -18
-147 -1 -34 9 -69 20 -77 23 -23 9 52 18 170 21 57 1 105 3 106 4 2 1 107 3
236 5 182 2 251 -1 313 -14z m-1605 -3 c0 -5 11 -12 25 -15 14 -4 25 -12 25
-20 0 -14 111 -56 148 -56 12 0 70 -25 130 -55 76 -39 133 -61 197 -74 87 -19
92 -21 137 -72 26 -28 58 -75 71 -103 36 -76 61 -189 53 -239 -4 -23 -9 -57
-11 -75 -2 -18 -8 -38 -13 -45 -5 -7 -14 -28 -21 -47 -6 -19 -21 -51 -32 -70
-20 -32 -23 -33 -29 -15 -4 11 -4 32 1 47 14 52 2 239 -21 308 -21 63 -44 95
-61 84 -5 -3 -6 -46 -3 -97 9 -145 -20 -270 -85 -366 -23 -33 -43 -61 -44 -61
-1 0 -2 80 -2 178 0 174 0 178 -28 234 -25 51 -87 118 -109 118 -5 0 -8 -21
-8 -47 -1 -86 -26 -169 -80 -267 -52 -94 -132 -192 -112 -136 12 33 16 90 15
230 0 123 -19 208 -63 283 -34 57 -46 48 -42 -32 4 -73 -24 -181 -58 -223 -16
-20 -17 -20 -38 29 -23 54 -57 202 -48 211 6 5 -10 34 -38 71 -6 7 -26 28 -45
45 -86 78 -84 75 -78 113 7 39 45 95 83 120 55 36 184 67 184 44z m675 -12
c-16 -6 -60 -24 -97 -40 -36 -16 -80 -29 -96 -29 -22 0 -36 -9 -56 -35 -15
-19 -31 -35 -37 -35 -13 0 -159 83 -159 90 0 9 105 40 165 48 28 4 109 8 180
9 104 2 124 0 100 -8z m126 -260 c84 -42 165 -97 230 -158 39 -36 48 -48 32
-44 -13 3 -20 9 -17 14 6 10 -7 12 -30 3 -9 -3 -16 -11 -16 -16 0 -6 7 -8 14
-5 10 4 13 1 9 -9 -3 -7 -7 -14 -10 -14 -2 0 -40 36 -85 80 -44 44 -77 72 -73
62 4 -9 15 -41 25 -69 l19 -53 -52 0 -52 0 -28 73 c-25 68 -46 167 -34 167 3
0 34 -14 68 -31z m863 7 c127 -27 149 -37 266 -126 43 -32 101 -68 130 -79 58
-22 114 -62 131 -92 9 -17 7 -25 -12 -45 -39 -42 -99 -52 -270 -48 -153 5
-154 5 -216 40 -45 25 -83 37 -142 46 -69 9 -85 16 -115 44 -20 19 -68 58
-108 87 -98 73 -115 92 -98 112 23 28 50 37 141 45 52 5 98 15 111 24 30 21
45 20 182 -8z m-1834 -81 c0 -18 5 -25 20 -25 17 0 20 -7 20 -42 0 -43 3 -57
39 -171 18 -55 21 -82 16 -140 -6 -71 -6 -73 35 -142 23 -38 46 -90 52 -115 6
-25 15 -61 20 -82 10 -45 79 -122 165 -185 42 -31 85 -76 123 -128 70 -97 141
-165 206 -198 27 -14 101 -39 164 -56 79 -22 163 -56 269 -109 l154 -76 176
-12 c190 -12 214 -19 295 -83 62 -49 98 -55 236 -34 138 20 154 17 304 -46
115 -49 167 -58 226 -37 60 21 95 20 165 -4 85 -29 109 -26 222 31 87 44 113
52 189 61 49 5 94 13 101 16 6 4 33 34 58 67 l46 59 -83 79 c-97 92 -112 101
-198 117 -71 14 -86 23 -113 69 l-18 31 56 -25 c31 -13 89 -34 128 -46 87 -26
119 -42 173 -85 23 -19 50 -34 60 -34 71 0 268 179 324 294 44 88 47 161 10
201 -14 15 -34 25 -52 25 -29 0 -108 -38 -108 -52 0 -11 34 -10 66 2 36 14 64
-11 64 -55 0 -46 -18 -58 -71 -46 -102 24 -179 1 -179 -53 0 -56 -76 -101 -98
-58 -13 24 -5 40 39 89 43 47 48 76 24 123 -18 35 -39 47 -119 70 -52 14 -64
22 -80 51 -11 20 -34 45 -53 57 -44 30 -44 61 2 101 42 37 69 39 157 11 76
-24 98 -24 162 -5 27 8 77 20 111 26 87 15 127 2 198 -65 33 -30 70 -57 85
-61 46 -11 81 -44 92 -86 6 -22 8 -44 5 -50 -4 -5 -1 -17 7 -26 11 -13 9 -18
-10 -31 -20 -13 -52 -70 -52 -92 0 -4 25 6 56 22 51 25 67 28 154 28 l97 0 67
51 c36 28 66 53 66 55 0 2 -13 1 -28 -2 -37 -8 -50 10 -63 85 -14 79 -40 116
-116 166 -34 22 -64 50 -67 62 -10 37 -58 85 -106 106 -25 11 -67 43 -95 71
-94 97 -241 165 -327 150 -48 -7 -83 3 -68 21 5 7 21 32 33 55 35 66 67 85
140 84 181 -1 546 -246 726 -485 54 -71 131 -211 145 -264 5 -18 2 -20 -40
-16 -32 2 -44 0 -40 -8 4 -6 13 -11 20 -11 25 0 66 -41 66 -66 0 -35 -24 -77
-60 -108 l-32 -26 -237 0 -238 0 -69 -35 c-38 -19 -96 -55 -129 -80 -123 -92
-281 -265 -259 -284 5 -4 42 -20 82 -35 127 -49 164 -104 128 -190 -55 -133
-324 -281 -637 -349 -191 -42 -289 -52 -539 -51 -433 1 -845 82 -1270 251
-396 157 -713 352 -964 593 -213 205 -342 408 -392 617 -23 94 -23 251 0 328
31 103 127 265 157 265 5 0 9 -11 9 -25z m1130 -146 c12 -22 20 -44 18 -49 -2
-4 -13 14 -25 41 -26 59 -21 65 7 8z m-97 -62 c19 18 20 17 6 -5 -16 -26 -27
-24 -47 9 l-14 24 17 -23 c17 -22 19 -22 38 -5z m94 7 c-3 -3 -12 -4 -19 -1
-8 3 -5 6 6 6 11 1 17 -2 13 -5z m2184 -61 c7 -27 15 -53 16 -58 2 -6 -7 -11
-19 -12 -15 -2 -18 1 -10 6 9 5 0 16 -30 36 -23 16 -48 28 -55 28 -7 0 -13 2
-13 4 0 4 80 41 91 42 4 1 13 -20 20 -46z m-510 -27 c22 -19 25 -25 13 -30 -8
-3 -12 -2 -9 3 3 5 1 12 -4 15 -5 4 -12 -3 -16 -14 -10 -32 -115 -79 -115 -51
0 5 13 14 29 21 39 16 65 45 58 65 -9 22 11 18 44 -9z m373 9 c-10 -8 -26 -14
-34 -14 -9 0 -4 6 10 14 33 19 49 19 24 0z m93 -41 c-3 -3 -12 -4 -19 -1 -8 3
-5 6 6 6 11 1 17 -2 13 -5z m-2443 -147 c0 -70 3 -127 8 -127 24 0 80 68 99
121 l22 59 46 -35 c26 -18 72 -43 102 -54 84 -32 119 -58 140 -104 11 -23 34
-59 51 -80 59 -69 13 -87 -159 -60 -59 9 -86 8 -140 -3 -128 -28 -123 -28
-183 11 -66 44 -134 75 -163 75 -19 0 -17 4 15 38 46 48 98 141 98 175 0 15 4
35 9 45 6 9 12 30 16 45 4 20 11 27 23 25 15 -3 17 -18 16 -131z m-213 51 c1
-29 3 -66 5 -83 2 -16 1 -59 -2 -94 l-6 -63 -35 5 c-59 10 -76 33 -69 94 5 45
3 55 -18 80 -12 15 -28 38 -35 50 -10 21 -8 25 21 43 22 13 51 20 86 20 l52 0
1 -52z m2087 -60 l47 -23 -52 -3 c-28 -2 -73 4 -100 12 -26 8 -41 15 -32 15
10 1 21 17 28 41 l12 40 25 -29 c13 -16 46 -40 72 -53z m-1100 27 c38 -12 52
-21 52 -34 0 -18 -16 -24 -123 -46 -11 -2 -19 5 -23 21 -3 13 -25 38 -48 55
l-41 31 65 -5 c36 -4 89 -13 118 -22z m202 -42 c0 -12 -3 -14 -8 -6 -4 6 -30
13 -57 16 l-50 3 58 2 c48 2 57 -1 57 -15z m852 -39 c15 -8 29 -18 32 -23 13
-21 -79 -71 -131 -71 -26 0 -30 5 -40 48 -6 26 -9 49 -7 51 8 9 80 18 99 13
11 -2 32 -11 47 -18z m-1045 0 c-3 -3 -12 -4 -19 -1 -8 3 -5 6 6 6 11 1 17 -2
13 -5z m66 -6 c2 -7 2 -28 -1 -47 -3 -24 -13 -38 -38 -53 -28 -17 -32 -23 -24
-39 6 -10 14 -19 19 -19 13 0 96 66 114 92 16 21 17 21 7 1 -10 -23 -79 -82
-117 -102 -20 -10 -23 -9 -23 5 0 10 -20 37 -45 61 l-45 43 38 19 c20 11 51
26 67 35 36 19 42 20 48 4z m1064 6 c-3 -3 -12 -4 -19 -1 -8 3 -5 6 6 6 11 1
17 -2 13 -5z m50 -10 c-3 -3 -12 -4 -19 -1 -8 3 -5 6 6 6 11 1 17 -2 13 -5z
m53 -8 c0 -2 -7 -6 -15 -10 -8 -3 -15 -1 -15 4 0 6 7 10 15 10 8 0 15 -2 15
-4z m-40 -21 c0 -2 -10 -9 -22 -15 -22 -11 -22 -10 -4 4 21 17 26 19 26 11z
m-619 -34 c-17 -16 -31 -38 -31 -50 0 -18 -6 -21 -37 -21 -21 0 -49 -3 -61 -7
-21 -5 -23 -3 -20 18 3 24 54 57 123 78 52 16 58 12 26 -18z m559 -1 c-8 -5
-19 -10 -25 -10 -5 0 -3 5 5 10 8 5 20 10 25 10 6 0 3 -5 -5 -10z m-47 -17
c-7 -2 -21 -2 -30 0 -10 3 -4 5 12 5 17 0 24 -2 18 -5z m127 -188 c238 -27
375 -49 414 -67 27 -11 42 -58 20 -58 -17 0 -699 98 -739 106 l-29 6 23 19
c30 24 42 24 311 -6z m-1736 -127 c-6 -34 -5 -40 7 -33 11 7 11 5 -1 -10 -8
-10 -35 -28 -60 -39 l-45 -21 53 -3 c41 -2 52 -7 52 -20 -1 -40 -14 -45 -76
-27 -92 26 -196 85 -152 85 33 0 90 23 146 59 40 26 62 36 66 28 2 -7 5 -4 5
6 1 9 3 17 6 17 3 0 2 -19 -1 -42z m839 -80 c65 -17 82 -26 103 -54 15 -19 58
-57 98 -86 133 -97 150 -122 101 -154 -20 -13 -38 -15 -78 -11 -44 6 -60 3
-99 -18 -95 -51 -137 -45 -272 40 -78 48 -143 75 -185 75 -51 0 -102 21 -142
60 -35 33 -40 43 -37 77 4 52 35 66 168 73 58 3 114 10 125 17 26 15 115 7
218 -19z m-752 -14 c18 -16 18 -18 -2 -45 -16 -23 -28 -29 -52 -27 l-32 1 32
4 c37 5 70 45 50 61 -7 5 -21 12 -32 15 -19 4 -19 5 -1 6 11 0 28 -6 37 -15z
m-73 -1 c-10 -2 -26 -2 -35 0 -10 3 -2 5 17 5 19 0 27 -2 18 -5z m1714 -324
c46 -34 85 -63 87 -65 2 -2 -11 -4 -30 -3 -24 0 -29 2 -16 8 15 6 11 12 -30
41 -26 19 -66 51 -87 70 -29 25 -38 29 -32 15 6 -16 3 -15 -16 5 -20 22 -21
27 -8 36 12 10 18 6 32 -17 10 -16 55 -56 100 -90z m520 106 c-29 -13 -37 -13
-60 0 -26 14 -25 14 33 14 l60 0 -33 -14z m-706 -24 c58 -27 134 -85 134 -101
0 -4 -12 -10 -27 -13 -16 -3 -37 -9 -48 -12 -15 -5 -16 -4 -6 3 10 7 5 10 -21
10 -38 0 -116 36 -163 76 -23 20 -26 25 -12 26 9 0 25 9 34 20 23 26 37 25
109 -9z m111 -137 c-3 -3 -12 -4 -19 -1 -8 3 -5 6 6 6 11 1 17 -2 13 -5z m71
-11 c-10 -2 -28 -2 -40 0 -13 2 -5 4 17 4 22 1 32 -1 23 -4z"/>
<path d="M1390 4885 c10 -12 15 -13 20 -4 6 8 9 8 13 0 4 -8 5 -8 3 0 -1 7
-13 14 -25 16 -21 3 -22 1 -11 -12z"/>
<path d="M2106 4039 c-15 -15 -16 -19 -5 -19 16 0 39 19 39 32 0 13 -14 8 -34
-13z"/>
<path d="M1210 3998 c0 -17 11 -39 28 -56 15 -15 21 -20 14 -11 -8 10 -20 35
-28 56 -12 34 -13 35 -14 11z"/>
<path d="M2060 3996 c-6 -8 -24 -17 -38 -19 l-27 -4 26 -2 c15 0 34 8 44 19
10 11 16 20 13 20 -3 0 -11 -6 -18 -14z"/>
<path d="M1240 3978 c0 -9 5 -20 11 -23 17 -11 18 -2 3 19 -12 17 -14 17 -14
4z"/>
<path d="M1082 4623 c-2 -37 6 -63 20 -63 7 0 7 4 0 13 -6 6 -12 28 -15 47
l-4 35 -1 -32z"/>
<path d="M1110 4600 c0 -11 4 -20 9 -20 5 0 7 9 4 20 -3 11 -7 20 -9 20 -2 0
-4 -9 -4 -20z"/>
<path d="M1335 4511 c-3 -5 -1 -12 5 -16 5 -3 10 1 10 9 0 18 -6 21 -15 7z"/>
<path d="M1320 4470 c0 -5 5 -10 12 -10 6 0 3 -9 -7 -20 -20 -22 -19 -25 11
-34 15 -4 21 -2 21 9 0 11 -6 13 -21 9 -19 -6 -19 -5 -6 11 19 23 21 45 4 45
-8 0 -14 -4 -14 -10z"/>
<path d="M1061 4448 c-1 -26 17 -68 30 -68 8 0 8 4 0 14 -7 8 -16 27 -21 43
-4 15 -9 20 -9 11z"/>
<path d="M1090 4428 c0 -9 7 -22 17 -29 15 -13 15 -12 3 11 -17 34 -20 36 -20
18z"/>
<path d="M1305 4370 c-10 -16 14 -40 39 -39 11 0 15 3 8 6 -6 2 -9 9 -6 15 4
6 -2 8 -16 3 -19 -6 -22 -4 -17 9 7 18 2 22 -8 6z"/>
<path d="M1410 4343 c0 -17 4 -20 22 -15 16 4 18 7 8 10 -8 3 -18 10 -22 16
-5 6 -8 2 -8 -11z"/>
<path d="M1178 4303 c7 -3 16 -2 19 1 4 3 -2 6 -13 5 -11 0 -14 -3 -6 -6z"/>
<path d="M1167 4279 c8 -8 16 -8 30 0 16 9 14 10 -11 11 -22 0 -27 -3 -19 -11z"/>
<path d="M1257 4199 c7 -7 15 -10 18 -7 3 3 -2 9 -12 12 -14 6 -15 5 -6 -5z"/>
<path d="M1242 4184 c9 -9 21 -15 27 -13 6 2 -2 10 -17 17 -25 11 -25 11 -10
-4z"/>
<path d="M1564 4496 c-45 -45 -47 -95 -5 -137 61 -60 156 -27 168 58 5 39 2
46 -30 78 -47 47 -86 48 -133 1z m125 -20 c9 -11 10 -20 1 -35 -6 -12 -8 -21
-5 -21 4 0 4 -4 0 -10 -7 -12 -45 19 -45 38 0 7 7 15 15 18 8 4 12 10 9 15 -9
15 13 10 25 -5z m-9 -106 c-14 -11 -36 -19 -50 -19 -22 0 -20 3 15 19 52 24
66 24 35 0z"/>
<path d="M1873 4318 c-13 -6 -23 -17 -23 -25 0 -19 8 -16 42 12 30 26 21 32
-19 13z"/>
<path d="M730 3636 c0 -2 8 -10 18 -17 15 -13 16 -12 3 4 -13 16 -21 21 -21
13z"/>
<path d="M2057 3610 c-37 -16 -81 -39 -98 -51 -26 -18 -33 -19 -40 -8 -7 10
-8 8 -6 -8 4 -25 17 -43 17 -23 0 7 3 10 7 7 3 -4 18 1 32 10 14 10 62 37 106
60 91 48 82 55 -18 13z"/>
<path d="M1470 3588 c0 -3 32 -17 70 -32 42 -17 67 -32 63 -38 -3 -6 -1 -8 4
-5 6 4 32 -5 58 -19 l47 -27 -4 -63 c-2 -35 1 -64 6 -64 4 0 6 38 5 85 -4 89
7 100 20 19 6 -35 10 -44 15 -32 6 13 15 16 35 12 25 -6 24 -5 -6 15 -31 19
-48 51 -20 35 6 -4 -3 7 -21 25 -38 35 -56 40 -47 12 4 -15 -10 -11 -82 25
-82 40 -143 62 -143 52z"/>
<path d="M1905 3580 c-3 -5 1 -10 9 -10 9 0 16 5 16 10 0 6 -4 10 -9 10 -6 0
-13 -4 -16 -10z"/>
<path d="M1880 3542 c0 -11 5 -24 10 -27 6 -4 9 2 7 14 -4 29 -17 39 -17 13z"/>
<path d="M1889 3428 c-1 -40 -3 -93 -4 -118 -1 -25 1 -52 6 -60 4 -9 8 22 8
70 1 47 3 106 6 133 3 27 1 47 -5 47 -6 0 -11 -32 -11 -72z"/>
<path d="M1921 3484 c0 -11 3 -14 6 -6 3 7 2 16 -1 19 -3 4 -6 -2 -5 -13z"/>
<path d="M1927 3453 c-4 -3 -6 -25 -6 -47 l2 -41 7 45 c8 48 7 54 -3 43z"/>
<path d="M1741 3368 c0 -9 -4 -25 -7 -35 -5 -14 -4 -15 5 -7 7 7 11 22 8 35
-2 13 -5 16 -6 7z"/>
<path d="M1693 3300 c-6 -17 -8 -32 -3 -35 4 -2 10 9 14 27 8 41 3 45 -11 8z"/>
<path d="M1716 3284 c-4 -9 -4 -19 -1 -22 2 -3 7 3 11 12 4 9 4 19 1 22 -2 3
-7 -3 -11 -12z"/>
<path d="M1920 3280 c0 -5 5 -10 11 -10 5 0 7 5 4 10 -3 6 -8 10 -11 10 -2 0
-4 -4 -4 -10z"/>
<path d="M1711 3245 c-7 -30 -5 -112 2 -100 4 9 6 37 4 63 -2 26 -4 43 -6 37z"/>
<path d="M1926 3220 c8 -43 14 -51 14 -19 0 13 -5 31 -10 39 -7 11 -8 5 -4
-20z"/>
<path d="M1893 3200 c16 -91 6 -293 -14 -306 -14 -9 -10 -24 5 -18 28 11 41
324 15 349 -8 7 -10 0 -6 -25z"/>
<path d="M1670 3170 c0 -8 5 -22 10 -30 9 -13 10 -13 10 0 0 8 -5 22 -10 30
-9 13 -10 13 -10 0z"/>
<path d="M2080 3169 c0 -5 4 -8 9 -4 5 3 12 1 16 -5 9 -15 25 -12 25 5 0 9 -9
15 -25 15 -14 0 -25 -5 -25 -11z"/>
<path d="M2141 3168 c-1 -12 6 -18 20 -18 11 0 17 5 14 10 -4 6 -10 8 -15 5
-4 -3 -11 1 -13 7 -3 8 -6 6 -6 -4z"/>
<path d="M1936 3145 c8 -37 14 -45 14 -19 0 10 -5 26 -10 34 -8 11 -9 7 -4
-15z"/>
<path d="M2190 3154 c0 -14 2 -15 17 -3 11 10 14 10 9 2 -4 -7 -2 -13 3 -13 6
0 11 7 11 15 0 8 -9 15 -20 15 -12 0 -20 -7 -20 -16z"/>
<path d="M2240 3148 c0 -12 3 -18 7 -14 11 10 12 36 2 36 -5 0 -9 -10 -9 -22z"/>
<path d="M2280 3143 c0 -15 2 -16 10 -3 6 10 10 11 10 3 0 -7 9 -13 20 -13 11
0 20 7 20 15 0 10 -10 15 -30 15 -22 0 -30 -5 -30 -17z"/>
<path d="M1680 3111 c0 -6 5 -13 10 -16 6 -3 10 1 10 9 0 9 -4 16 -10 16 -5 0
-10 -4 -10 -9z"/>
<path d="M1716 3080 c8 -43 14 -51 14 -19 0 13 -5 31 -10 39 -7 11 -8 5 -4
-20z"/>
<path d="M1943 3050 c0 -30 2 -43 4 -27 2 15 2 39 0 55 -2 15 -4 2 -4 -28z"/>
<path d="M1690 3065 c0 -5 5 -17 10 -25 5 -8 10 -10 10 -5 0 6 -5 17 -10 25
-5 8 -10 11 -10 5z"/>
<path d="M1735 3022 c4 -8 11 -26 15 -40 7 -22 8 -23 9 -6 1 11 -6 29 -15 40
-8 10 -12 13 -9 6z"/>
<path d="M1700 3011 c0 -6 5 -13 10 -16 6 -3 10 1 10 9 0 9 -4 16 -10 16 -5 0
-10 -4 -10 -9z"/>
<path d="M1922 2935 c0 -16 2 -22 5 -12 2 9 2 23 0 30 -3 6 -5 -1 -5 -18z"/>
<path d="M1764 2907 c2 -19 26 -47 26 -31 0 6 -6 19 -14 30 -13 17 -14 17 -12
1z"/>
<path d="M1910 2885 c0 -8 2 -15 4 -15 2 0 6 7 10 15 3 8 1 15 -4 15 -6 0 -10
-7 -10 -15z"/>
<path d="M3345 870 c3 -5 8 -10 11 -10 2 0 4 5 4 10 0 6 -5 10 -11 10 -5 0 -7
-4 -4 -10z"/>
</g>
</svg>
